# xmcd
#
# Track frame offsets: 
#        150
#        13660
#        26683
#        41133
#        53463
#        63449
#        74384
#        86989
#        101899
#        115176
#        127313
#        141475
#        154703
#        166828
#        179795
#        194837
#        207749
#        218791
#        231234
#        241739
#        255659
#        267549
#        278221
#        292121
#
# Disc length: 4065 seconds
#
# Revision: 0
# Processed by: cddbd v1.5.2PL0 Copyright (c) Steve Scherf et al.
# Submitted via: ExactAudioCopy v0.99pb4
#
DISCID=890fdf18
DTITLE=Elmore James - Dust My Broom
DYEAR=2007
DGENRE=Blues
TTITLE0=Sweet Little Woman
TTITLE1=Sho' Nuff I Do
TTITLE2=1839 Blues
TTITLE3=Happy Home
TTITLE4=Mean And Evil (The Way You Treat Me)
TTITLE5=No Love In My Heart for you
TTITLE6=Standing At the Crossroads
TTITLE7=Sunnyland
TTITLE8=Where Can My Baby Be
TTITLE9=Blues Before Sunrise
TTITLE10=Dust My Blues
TTITLE11=Goodbye Baby
TTITLE12=Late Hours At Midnight
TTITLE13=I Was A Fool
TTITLE14=Wild About You
TTITLE15=Long Tall Woman (Original)
TTITLE16=Coming Home
TTITLE17=Cry For Me Baby
TTITLE18=Elmore's Contribution To Jazz
TTITLE19=It Hurts Me Too
TTITLE20=Knockin' On Your Door
TTITLE21=Take Me Where You Go
TTITLE22=The Twelve Year Old Baby
TTITLE23=T.V. Mama
EXTD=
EXTT0=
EXTT1=
EXTT2=
EXTT3=
EXTT4=
EXTT5=
EXTT6=
EXTT7=
EXTT8=
EXTT9=
EXTT10=
EXTT11=
EXTT12=
EXTT13=
EXTT14=
EXTT15=
EXTT16=
EXTT17=
EXTT18=
EXTT19=
EXTT20=
EXTT21=
EXTT22=
EXTT23=
PLAYORDER=
